<svg xmlns="http://www.w3.org/2000/svg" width="750.891" height="614" viewBox="0 0 750.891 614"><g transform="translate(-41 -242.537)"><path d="M782.934,1047.442H49.957A9.021,9.021,0,0,1,41,1038.41v-35.377A9.021,9.021,0,0,1,49.957,994H782.934a9.021,9.021,0,0,1,8.957,9.032v35.377A9.021,9.021,0,0,1,782.934,1047.442Z" transform="translate(0 -190.905)" fill="#f7f7f7"/><ellipse cx="251.5" cy="248.5" rx="251.5" ry="248.5" transform="translate(171 318.537)" fill="#f3faff"/><g transform="translate(703.125 588.812)"><path d="M956.868,862.156c5.344-13.624,10.764-28.753,5.721-42.453-1.2-3.312-3.086-6.85-1.957-10.237,1.505-4.592,7.527-6.172,9.484-10.538,2.258-4.817-1.28-10.387-.376-15.581.9-5.269,6.1-8.731,11.14-10.613s10.538-3.086,14.6-6.549c7.753-6.774,6.85-18.893,5.118-29.13-1.731-10.162-3.011-22.2,4.441-29.356-13.7,2.635-27.7,5.344-39.593,12.57s-21.377,20.022-20.7,33.947c.376,7,3.086,14.452-.075,20.624-3.463,6.7-12.721,9.334-15.054,16.484-2.71,8.2,5.344,15.732,8.506,23.786,3.011,7.6,1.581,16.108,2.258,24.162.677,8.129,4.893,17.312,12.947,18.517Z" transform="translate(-929.072 -707.7)" fill="#ffbe55"/><g opacity="0.31"><path d="M956.868,862.156c5.344-13.624,10.764-28.753,5.721-42.453-1.2-3.312-3.086-6.85-1.957-10.237,1.505-4.592,7.527-6.172,9.484-10.538,2.258-4.817-1.28-10.387-.376-15.581.9-5.269,6.1-8.731,11.14-10.613s10.538-3.086,14.6-6.549c7.753-6.774,6.85-18.893,5.118-29.13-1.731-10.162-3.011-22.2,4.441-29.356-13.7,2.635-27.7,5.344-39.593,12.57s-21.377,20.022-20.7,33.947c.376,7,3.086,14.452-.075,20.624-3.463,6.7-12.721,9.334-15.054,16.484-2.71,8.2,5.344,15.732,8.506,23.786,3.011,7.6,1.581,16.108,2.258,24.162.677,8.129,4.893,17.312,12.947,18.517Z" transform="translate(-929.072 -707.7)" fill="#fff"/></g><path d="M958.7,844.416c-.151-39.593,7.527-122.466,53.217-136.316" transform="translate(-936.398 -707.799)" fill="none" stroke="#fff" stroke-linecap="round" stroke-miterlimit="10" stroke-width="0.75"/></g><g transform="translate(621.402 565.795)"><path d="M898.18,851.252c-8.129-15.2-16.56-32.141-12.57-48.926.979-4.065,2.634-8.43.9-12.269-2.333-5.118-9.635-6.247-12.57-11.065-3.237-5.269.075-12.344-1.731-18.291-1.807-6.1-8.355-9.334-14.452-10.914-6.1-1.505-12.721-2.108-17.99-5.721-10.011-6.85-10.613-21.226-10.011-33.345S830.21,684.3,820.5,677c16.409,1.2,33.194,2.484,48.1,9.334s27.85,20.549,28.9,36.958c.527,8.2-1.656,17.312,2.936,24.162,4.968,7.377,16.183,9.183,19.947,17.237,4.29,9.258-4.065,19.119-6.7,28.979-2.409,9.258.376,19.044.677,28.6s-3.387,20.925-12.646,23.484Z" transform="translate(-820.5 -677)" fill="#ffbe55"/><path d="M902.367,829.673C897.1,783.231,876.775,687.26,821.3,677.4" transform="translate(-820.698 -677.099)" fill="none" stroke="#fff" stroke-linecap="round" stroke-miterlimit="10" stroke-width="0.75"/></g><path d="M963.562,987.186H892.054a9.059,9.059,0,0,1-9.032-9.032L877,875.033A9.059,9.059,0,0,1,886.032,866h83.551a9.059,9.059,0,0,1,9.032,9.033l-6.022,103.121A9.059,9.059,0,0,1,963.562,987.186Z" transform="translate(-213.07 -159.252)" fill="#cce9ff"/><g transform="translate(108.403 459.224)"><rect width="46.668" height="209.253" transform="translate(0 43.208) rotate(-8.621)" fill="#ffbe55"/><rect width="23.334" height="209.253" transform="translate(23.054 39.73) rotate(-8.621)" fill="#ffbe55"/><path d="M176.741,570.931l-46.141,7,10.839-27.775,6.172-15.656,10.538,13.172Z" transform="translate(-130.561 -534.5)" fill="#ffebc2"/><path d="M161.71,547.672,145,550.156l6.172-15.656Z" transform="translate(-134.121 -534.5)" fill="#0e538c"/></g><g transform="translate(171.757 410.802)"><rect width="46.668" height="209.253" transform="matrix(0.996, 0.089, -0.089, 0.996, 18.663, 37.922)" fill="#ffbe55"/><rect width="23.334" height="209.253" transform="matrix(0.996, 0.089, -0.089, 0.996, 41.949, 40.02)" fill="#ffbe55"/><path d="M287.617,511.6l-46.517-4.14,17.162-24.388,9.71-13.775,7.075,15.28Z" transform="translate(-222.448 -469.3)" fill="#ffebc2"/><path d="M280.685,484.58,263.9,483.075l9.71-13.775Z" transform="translate(-228.086 -469.3)" fill="#0e538c"/></g><path d="M275.371,934.771H92.011L68,651H290.049Z" transform="translate(-6.677 -106.085)" fill="#cce9ff"/><g transform="translate(171.06 544.915)"><path d="M215.5,934.771h96.347L326.525,651H215.5Z" transform="translate(-215.5 -651)" fill="#cce9ff" opacity="0.5"/></g><rect width="465.927" height="64.056" transform="translate(208.886 748.598)" fill="#ffebc2"/><path d="M263.291,917.075V981.13H752.1v4.817c0,5.946-5.194,10.764-11.592,10.764H265.4c-15.129,0-27.4-11.291-27.4-25.291V928.591c0-14,12.269-25.291,27.4-25.291h475.11c6.4,0,11.592,4.817,11.592,10.764v3.086H263.291Z" transform="translate(-55.051 -168.476)" fill="#ffbe55"/><g transform="translate(208.886 777.126)"><rect width="465.927" height="35.453" fill="#ffebc2"/></g><rect width="378" height="56" transform="translate(269 671.537)" fill="#cce9ff"/><path d="M342.323,814.068v55.7H735.237v4.215a9.332,9.332,0,0,1-9.334,9.334H343.979A22,22,0,0,1,322,861.338V824.079A22,22,0,0,1,343.979,802.1H725.9a9.381,9.381,0,0,1,9.334,9.334v2.71H342.323Z" transform="translate(-73.384 -142.378)" fill="#2a94f4"/><g transform="translate(296.403 413.662)"><path d="M521.325,543.009a20.013,20.013,0,0,1-.753-23.409c3.914-5.721,6.549-12.8,6.247-17.99-.6-9.334-6.4-17.914-14.3-23.033a36.518,36.518,0,0,0-56.227,26.345c-1.054,8.807.979,18.441-3.538,26.119-3.312,5.495-9.409,8.731-15.431,10.914-6.1,2.108-12.495,3.538-18.065,6.774s-10.312,8.807-10.237,15.28c.075,4.893,2.86,9.409,3.161,14.226.452,7.075-4.516,13.323-9.785,17.99-5.344,4.667-11.441,8.731-15.054,14.828-5.946,10.086-3.161,23.71,4.366,32.743s18.818,14.076,30.108,17.011c30.861,8.129,63.378,2.86,95.218,2.333,9.86-.151,19.947.151,29.506-2.333s18.893-8.2,22.882-17.237c4.065-9.033,2.032-20.022-3.387-28.227s-13.925-14.151-22.882-18.366c-6.473-3.086-13.4-5.495-18.667-10.312s-8.355-13.022-4.817-19.269c1.355-2.409,3.613-4.29,4.893-6.7,2.559-4.667,1.505-10.613-1.355-15.129C522.68,544.816,522.078,543.988,521.325,543.009Z" transform="translate(-384.127 -472.726)" fill="#0e538c"/></g><g transform="translate(269.125 696.63)"><rect width="378" height="31" transform="translate(-0.125 -0.093)" fill="#cce9ff"/></g><path d="M559.308,746l46.668,33.119,57.206,118.175H652.644l-63.98-104.627s-21.829.753-29.356-6.022-50.808-36.13-50.808-36.13Z" transform="translate(-119.308 -129.577)" fill="#0b4870"/><path d="M465.132,733.4c-8.506,23.033-2.484,55.4,26.119,56.9s37.635,0,37.635,0l55.7,112.906h12.8L553.726,776.756,500.66,747.4Z" transform="translate(-107.232 -126.461)" fill="#0e538c"/><path d="M522.516,559c7.527,9.785,25.592,36.883,32.367,66.991s25.592,73.766,25.592,73.766H558.646L537.57,628.249,518,561.258Z" transform="translate(-121.231 -80.852)" fill="#4ea3fb"/><path d="M543.344,500.979c1.129,18.441-6.925,31.087-18.441,31.689s-19.044-16.108-15.581-31.689C517.375,487.129,528.365,486,528.365,486h6.925Z" transform="translate(-118.688 -61.921)" fill="#ffe3ca"/><g transform="translate(384.395 421.899)"><path d="M533.892,489.247A26.384,26.384,0,0,1,501.3,506.409L517.709,483h14.076l13.474,10.688-2.032,12.269C537.957,501.968,533.892,489.247,533.892,489.247Z" transform="translate(-501.3 -483)" fill="#0e538c"/></g><path d="M520.457,539.758c-2.409,9.334-1.656,19.119-1.656,20.624-2.258,3.011-12.8,2.258-14.3-8.28a273.459,273.459,0,0,1,6.774-28.6l3.764,8.28Z" transform="translate(-117.601 -71.412)" fill="#ffe3ca"/><path d="M492.528,550.9c-9.409,3.086-41.023,17.388-42.528,20.4,2.258,8.28,13.549,130.971,13.549,130.971h51.184s-6.774-67.744-3.011-72.26,15.807-20.323,14.3-22.581S505.4,556.621,505.4,556.621Z" transform="translate(-104.005 -78.841)" fill="#2a94f4"/><path d="M439.982,578c-7.377,5.645-38.388,56.453-28.6,83.551s41.775,43.055,41.775,43.055V689.7s-25.968-20.624-24.463-35.678,19.57-45.915,19.57-45.915Z" transform="translate(-93.586 -85.624)" fill="#4ea3fb"/><path d="M571.632,736.051h-110.8a6.361,6.361,0,0,1-6.323-6.323L451.5,658.823a6.361,6.361,0,0,1,6.323-6.323H573.138a6.361,6.361,0,0,1,6.323,6.323l-1.505,70.905A6.361,6.361,0,0,1,571.632,736.051Z" transform="translate(-104.623 -104.361)" fill="#ffbe55"/><path d="M635.677,959c7.452,1.656,17.538,9.86,22.355,14.076a1.424,1.424,0,0,1-.979,2.484c-7.753-.151-25.291-.978-29.356-4.441-5.269-4.516-3.764-12.043-3.764-12.043h11.742Z" transform="translate(-147.951 -182.25)" fill="#1a87d8"/><path d="M710.161,946.427c6.624,1.807,15.355,9.484,19.721,13.624a1.4,1.4,0,0,1-1.054,2.409c-7.3-.527-22.958-1.957-26.5-5.344C697.666,952.75,699.4,945.9,699.4,945.9Z" transform="translate(-167.06 -179.011)" fill="#1a87d8"/><circle cx="11.5" cy="11.5" r="11.5" transform="translate(400 578.537)" fill="#fff"/><path d="M395.6,903.69l-14.3-8.28L367,903.69V851h28.6Z" transform="translate(-82.75 -154.597)" fill="#ffbe55"/><path d="M680.014,503.112a5.708,5.708,0,0,1-1.43,3.764,5.564,5.564,0,0,1,1.43,3.764v4.667a5.927,5.927,0,0,1-.753,2.785,5.927,5.927,0,0,1,.753,2.785v4.667a5.557,5.557,0,0,1-5.57,5.57H625.97a5.557,5.557,0,0,1-5.57-5.57V520.8a5.927,5.927,0,0,1,.753-2.785,5.927,5.927,0,0,1-.753-2.785v-4.667a5.708,5.708,0,0,1,1.43-3.764,5.564,5.564,0,0,1-1.43-3.764V498.37a5.557,5.557,0,0,1,5.57-5.57h48.474a5.557,5.557,0,0,1,5.57,5.57Z" transform="translate(-147.24 -63.623)" fill="#ffbe55"/><path d="M705.993,343.8A68.611,68.611,0,0,1,667.3,405.519V430.81a3.5,3.5,0,0,1-3.462,3.462h-52.69a3.5,3.5,0,0,1-3.462-3.462V405.519a68.516,68.516,0,1,1,98.3-61.722Z" transform="translate(-134.628 -8.235)" fill="#ffbe55"/><line x1="46" transform="translate(480 443.537)" fill="none" stroke="#7f7f7f" stroke-linecap="round" stroke-miterlimit="10" stroke-width="2" opacity="0.23"/><line x1="46" transform="translate(480 453.537)" fill="none" stroke="#7f7f7f" stroke-linecap="round" stroke-miterlimit="10" stroke-width="2" opacity="0.23"/><g transform="translate(490.066 342.054)"><path d="M667.492,377.168a4.18,4.18,0,0,0-3.312-.979,5.965,5.965,0,0,0-4.065,2.333,9.018,9.018,0,0,0-1.505,3.764c-.677-.376-1.43-.753-2.108-1.2l-.226-.151H655.3l-.226.151c-.753.452-1.43.828-2.108,1.2a9.019,9.019,0,0,0-1.505-3.764,5.809,5.809,0,0,0-4.065-2.333,4.267,4.267,0,0,0-3.312.979,4.155,4.155,0,0,0-1.129,4.14,5.9,5.9,0,0,0,4.366,4.215,9.081,9.081,0,0,0,3.764-.151h0c1.882,24.463,2.634,49.227,2.108,73.69h2.258c.527-24.538-.226-49.378-2.108-73.841a2.084,2.084,0,0,0-.075-.677,16.643,16.643,0,0,0,2.559-1.355,27.488,27.488,0,0,0,2.559,1.355,2.084,2.084,0,0,1-.075.677c-1.882,24.463-2.634,49.3-2.108,73.841h2.258c-.527-24.463.226-49.3,2.108-73.69h0a7.933,7.933,0,0,0,3.764.151,6.02,6.02,0,0,0,4.366-4.215A4.359,4.359,0,0,0,667.492,377.168Zm-19.8,6.247a3.856,3.856,0,0,1-2.634-2.634,1.694,1.694,0,0,1,.452-1.882,1.788,1.788,0,0,1,1.28-.452h.3a3.56,3.56,0,0,1,2.484,1.43,6.744,6.744,0,0,1,1.2,3.312A7.169,7.169,0,0,1,647.7,383.415Zm18.742-2.634a3.724,3.724,0,0,1-2.635,2.634,5.881,5.881,0,0,1-3.011-.226,7.575,7.575,0,0,1,1.2-3.312,3.8,3.8,0,0,1,2.484-1.43,1.928,1.928,0,0,1,1.581.452A2.186,2.186,0,0,1,666.438,380.781Z" transform="translate(-642.812 -376.157)" fill="#fff"/></g><path d="M622.355,292c-16.56,6.022-43.657,27.85-41.4,63.228" transform="translate(-137.09 -12.365)" fill="none" stroke="#fff" stroke-linecap="round" stroke-miterlimit="10" stroke-width="4"/><ellipse cx="19" cy="19.5" rx="19" ry="19.5" transform="translate(376 362.537)" fill="#ffbe55"/><circle cx="8.5" cy="8.5" r="8.5" transform="translate(590 311.537)" fill="#ffbe55"/><circle cx="14.5" cy="14.5" r="14.5" transform="translate(556 439.537)" fill="#ffbe55"/><ellipse cx="14.5" cy="14" rx="14.5" ry="14" transform="translate(421 242.537)" fill="#ffbe55"/><path d="M395.6,903.69l-14.3-8.28L367,903.69V851h28.6Z" transform="translate(-82.75 -154.597)" fill="#0c0c0c" opacity="0.14"/></g></svg>