<?xml version="1.0" encoding="utf-8"?>
<!-- Generator: Adobe Illustrator 24.2.3, SVG Export Plug-In . SVG Version: 6.00 Build 0)  -->
<svg version="1.1" id="Layer_1" xmlns="http://www.w3.org/2000/svg" xmlns:xlink="http://www.w3.org/1999/xlink" x="0px" y="0px"
	 viewBox="0 0 250 58.2" style="enable-background:new 0 0 250 58.2;" xml:space="preserve">
<style type="text/css">
	.st0{fill:#215970;}
	.st1{enable-background:new    ;}
</style>
<path id="logo" class="st0" d="M244.9,5.5c-2.7-2.6-6.1-4.4-9.8-5c-1.4-0.3-2.8-0.4-4.3-0.5c-4.9,0-9.6,2-12.9,5.7l3.8,3.1l-1.4,1.8
	l-3.8-3.1c-0.2,0.2-0.3,0.4-0.5,0.6l-2.5,3.1c-1.5-3.7-2.9-7.5-4.4-11.2h-14.6c0,18,0,40.2,0,58.2H250V19.8
	C250.1,18.3,250.3,10.9,244.9,5.5z M230.5,50.7c-4.9-3.3-11.4-3.3-16.4,0V24.1c0-5.1,3.4-8.8,8.2-8.8c5.1,0,8.1,3.4,8.1,8.8
	L230.5,50.7z"/>
<g class="st1">
	<path class="st0" d="M1.2,26.3h4.3v5.9c0,0.5,0.2,1,0.6,1.3C6.5,33.8,6.9,34,7.4,34H20c0.2,0,0.4-0.1,0.6-0.2
		c0.2-0.2,0.2-0.3,0.2-0.6v-6h4.4v6c0,0.2,0.1,0.4,0.2,0.6c0.2,0.2,0.4,0.3,0.6,0.3h0.9c0.1,0,0.2,0,0.3,0.1
		c0.1,0.1,0.1,0.2,0.1,0.3v4.3c0,0.1,0,0.2-0.1,0.3c-0.1,0.1-0.2,0.1-0.3,0.1h-0.2c-0.7,0-1.4-0.1-2-0.4c-0.6-0.2-1.2-0.6-1.7-1.2
		c-0.5,0.6-1.1,1-1.8,1.2s-1.3,0.3-2,0.3H7.9c-0.9,0-1.8-0.2-2.6-0.5c-0.8-0.3-1.5-0.8-2.1-1.4S2.1,35.8,1.7,35
		c-0.4-0.8-0.5-1.7-0.5-2.6V26.3z M9.3,26.3v-4.1h7.8v4.1H9.3z"/>
	<path class="st0" d="M26.5,38.7v-4.2c0-0.3,0.1-0.4,0.4-0.4h20c0.1,0,0.2,0,0.3-0.2c0.1-0.1,0.2-0.2,0.2-0.5v-2.2
		c0-0.2-0.1-0.4-0.2-0.5s-0.3-0.2-0.5-0.2H31.1l-3.1-3l9.6-11.2l3.1,2.9l-5.6,6.6h11.1c0.8,0,1.5,0.1,2.1,0.4
		c0.7,0.3,1.3,0.7,1.8,1.2c0.5,0.5,0.9,1.1,1.2,1.8c0.3,0.7,0.4,1.4,0.4,2.2v1.8c0,0.2,0.1,0.4,0.3,0.6s0.4,0.2,0.6,0.2h1.2
		c0.1,0,0.2,0,0.3,0.1c0.1,0.1,0.1,0.2,0.1,0.3v4.2c0,0.1,0,0.2-0.1,0.3c-0.1,0.1-0.2,0.1-0.3,0.1h-0.5c-0.7,0-1.3-0.1-1.9-0.3
		c-0.6-0.2-1.2-0.5-1.7-0.8c-0.5,0.4-1.1,0.6-1.7,0.8c-0.6,0.2-1.2,0.3-1.9,0.3H26.9c-0.1,0-0.2,0-0.3-0.1S26.5,38.8,26.5,38.7z"/>
	<path class="st0" d="M53.8,34h0.9c0.3,0,0.5-0.1,0.7-0.2c0.2-0.1,0.3-0.3,0.4-0.6l0.6-3.1c0.1-0.6,0.3-1.2,0.7-1.7
		c0.3-0.5,0.7-1,1.2-1.3c0.5-0.4,1-0.7,1.6-0.9c0.6-0.2,1.2-0.3,1.8-0.3h1.7c0.8,0,1.5,0.1,2.1,0.4c0.7,0.3,1.3,0.7,1.8,1.2
		c0.5,0.5,0.9,1.1,1.2,1.8c0.3,0.7,0.4,1.4,0.4,2.2v1.8c0,0.2,0.1,0.4,0.3,0.6c0.2,0.2,0.4,0.3,0.6,0.3h1.3c0.1,0,0.2,0,0.3,0.1
		c0.1,0.1,0.1,0.2,0.1,0.3v4.2c0,0.1,0,0.2-0.1,0.3s-0.2,0.1-0.3,0.1h-0.6c-0.6,0-1.2-0.1-1.7-0.2c-0.6-0.2-1.1-0.5-1.5-1
		c-0.4,0.5-0.8,0.8-1.3,0.9c-0.5,0.2-1,0.3-1.5,0.3H61c-0.6,0-1.1-0.1-1.7-0.3c-0.6-0.2-1.1-0.6-1.6-1.2c-0.5,0.6-1,1-1.6,1.2
		c-0.6,0.2-1.2,0.3-1.8,0.3h-0.6c-0.1,0-0.2,0-0.3-0.1c-0.1-0.1-0.1-0.2-0.1-0.3v-4.3C53.4,34.1,53.5,34,53.8,34z M60.4,34h4v-2.7
		c0-0.2-0.1-0.3-0.2-0.4c-0.1-0.1-0.2-0.1-0.4-0.1H61c-0.3,0-0.4,0.1-0.5,0.4l-0.5,2.4c0,0.1,0,0.2,0,0.3C60.2,34,60.3,34,60.4,34z"
		/>
	<path class="st0" d="M70.9,34h2.9c0.2,0,0.5-0.1,0.7-0.2c0.2-0.1,0.3-0.4,0.4-0.6l1.2-6l4.3,0.8l-1,5c-0.1,0.3,0,0.6,0.1,0.8
		c0.1,0.2,0.3,0.3,0.6,0.3h2.4c0.1,0,0.2,0,0.3,0.1c0.1,0.1,0.1,0.2,0.1,0.3v4.2c0,0.1,0,0.2-0.1,0.3c-0.1,0.1-0.2,0.1-0.3,0.1H80
		c-0.6,0-1.2-0.1-1.7-0.3s-1-0.6-1.5-1.2c-0.5,0.6-1.1,1-1.7,1.2c-0.6,0.2-1.2,0.3-1.8,0.3h-2.4c-0.1,0-0.2,0-0.3-0.1
		c-0.1-0.1-0.1-0.2-0.1-0.3v-4.2c0-0.1,0-0.2,0.1-0.3C70.7,34.1,70.8,34,70.9,34z M72.8,46.8v-4.1h7.8v4.1H72.8z"/>
	<path class="st0" d="M82.4,34h3.7c0.2,0,0.4-0.1,0.6-0.3c0.2-0.2,0.2-0.4,0.2-0.6v-6.9h4.3v6.8c0,0.8-0.2,1.6-0.5,2.3
		c-0.3,0.7-0.7,1.4-1.3,1.9s-1.2,1-1.9,1.3c-0.7,0.3-1.5,0.5-2.3,0.5h-2.9c-0.1,0-0.2,0-0.3-0.1S82,38.8,82,38.7v-4.2
		c0-0.1,0-0.2,0.1-0.3C82.2,34.1,82.3,34,82.4,34z M91,24.3h-3.9v-4H91V24.3z"/>
	<path class="st0" d="M100,30.3v7.9c0,0.4,0.1,0.7,0.2,1.1s0.4,0.6,0.6,0.9c0.3,0.2,0.6,0.5,0.9,0.6c0.3,0.1,0.7,0.2,1.1,0.2h5.9
		c0.5,0,1-0.2,1.3-0.5c0.4-0.3,0.5-0.7,0.5-1.3v-0.2h-6.1V34h11.5c0.3,0,0.4,0.1,0.4,0.4v4.2c0,0.1,0,0.2-0.1,0.3s-0.2,0.1-0.3,0.1
		h-1.2c0.1,0.1,0.1,0.2,0.1,0.5v0.1c0,0.9-0.2,1.8-0.5,2.6s-0.8,1.5-1.5,2c-0.6,0.6-1.3,1-2.2,1.4c-0.8,0.3-1.7,0.5-2.6,0.5H103
		c-1,0-2-0.2-2.9-0.6s-1.7-0.9-2.3-1.6c-0.7-0.7-1.2-1.4-1.6-2.3c-0.4-0.9-0.6-1.8-0.6-2.9v-8.5H100z"/>
	<path class="st0" d="M115.6,38.7v-4.3c0-0.3,0.1-0.4,0.4-0.4h0.9c0.3,0,0.5-0.1,0.6-0.2c0.2-0.1,0.3-0.3,0.4-0.6l0.6-3.1
		c0.1-0.6,0.3-1.2,0.6-1.7c0.3-0.5,0.7-1,1.2-1.4c0.5-0.4,1-0.7,1.6-0.9c0.6-0.2,1.2-0.3,1.8-0.3h1.7c0.8,0,1.5,0.1,2.1,0.4
		c0.7,0.3,1.3,0.7,1.8,1.2c0.5,0.5,0.9,1.1,1.2,1.8c0.3,0.7,0.4,1.4,0.4,2.2v3.3c0,0.6-0.1,1.1-0.4,1.7c-0.2,0.5-0.6,1-1,1.4
		s-0.9,0.7-1.4,1c-0.5,0.2-1.1,0.4-1.7,0.4h-3.3c-0.6,0-1.1-0.1-1.7-0.3c-0.6-0.2-1.1-0.6-1.6-1.3c-0.5,0.6-1,1-1.6,1.2
		c-0.6,0.2-1.2,0.3-1.8,0.3h-0.6c-0.1,0-0.2,0-0.3-0.1C115.7,38.9,115.6,38.8,115.6,38.7z M122.7,34h4v-2.7c0-0.1-0.1-0.3-0.2-0.4
		c-0.1-0.1-0.2-0.2-0.4-0.2h-2.8c-0.1,0-0.3,0-0.3,0.1s-0.2,0.2-0.2,0.3l-0.5,2.4c0,0.1,0,0.2,0,0.3C122.5,34,122.5,34,122.7,34z"/>
	<path class="st0" d="M133.1,34.5V30h3.6v3.5c0,0.3,0.2,0.5,0.5,0.5h5c0.6,0,1-0.2,1.3-0.6c0.3-0.4,0.2-0.9-0.1-1.5l-3.9-7.1
		l3.7-2.4l4.1,7.3c0.5,0.9,0.8,2,0.7,3c0,1.1-0.3,2.1-0.8,3s-1.2,1.7-2,2.3c-0.9,0.6-1.9,0.9-3,0.9h-4.6c-0.6,0-1.2-0.1-1.8-0.4
		c-0.6-0.2-1-0.6-1.5-1s-0.8-0.9-1-1.5C133.2,35.7,133.1,35.1,133.1,34.5z"/>
	<path class="st0" d="M150.1,33.3V17.9h4.3v15.3c0,0.2,0.1,0.4,0.2,0.6s0.4,0.2,0.6,0.2h1.3c0.1,0,0.2,0,0.3,0.1s0.1,0.2,0.1,0.3
		v4.2c0,0.3-0.1,0.4-0.4,0.4H156c-0.8,0-1.6-0.2-2.3-0.5c-0.7-0.3-1.3-0.7-1.9-1.2c-0.5-0.5-0.9-1.1-1.2-1.9
		C150.3,34.8,150.1,34.1,150.1,33.3z"/>
	<path class="st0" d="M156.6,34h20c0.1,0,0.2,0,0.3-0.1c0.1-0.1,0.2-0.2,0.2-0.4v-2.2c0-0.2-0.1-0.4-0.2-0.5s-0.3-0.2-0.5-0.2h-15.6
		l-3.1-3l9.6-11.2l3.1,2.9l-5.6,6.6h11.1c0.8,0,1.5,0.1,2.1,0.4s1.3,0.7,1.8,1.2c0.5,0.5,0.9,1.1,1.2,1.8c0.3,0.7,0.4,1.4,0.4,2.2
		v2.2c0,0.8-0.2,1.5-0.5,2.2c-0.3,0.7-0.7,1.3-1.3,1.8c-0.5,0.5-1.1,0.9-1.8,1.2c-0.7,0.3-1.4,0.4-2.1,0.4h-19.1
		c-0.1,0-0.2,0-0.3-0.1c-0.1-0.1-0.1-0.2-0.1-0.3v-4.3c0-0.1,0-0.2,0.1-0.3S156.4,34,156.6,34z"/>
	<path class="st0" d="M179.9,19.8v-1.7c0-0.6,0.1-1.1,0.3-1.5c0.2-0.4,0.4-0.7,0.7-1c0.3-0.3,0.7-0.5,1-0.6c0.4-0.1,0.8-0.2,1.2-0.2
		h6v3.7h-6.4c-0.2,0-0.3,0.1-0.3,0.2v1H179.9z M183.7,20.2h4.4v18.9h-4.4V20.2z"/>
</g>
</svg>
