<svg xmlns="http://www.w3.org/2000/svg" width="250.032" height="58.214" viewBox="0 0 250.032 58.214">
  <path id="logo" d="M89.449,21.235a18.489,18.489,0,0,0-9.777-5.03,21.143,21.143,0,0,0-4.251-.454,16.94,16.94,0,0,0-12.867,5.724l3.839,3.132-1.438,1.759-3.832-3.129c-.165.2-.328.4-.49.6l-2.5,3.089q-2.2-5.59-4.407-11.18H39.13c.013,18,.029,40.217.045,58.214H94.508V35.524C94.589,34.028,94.833,26.68,89.449,21.235ZM75.018,66.4a14.622,14.622,0,0,0-16.35,0V39.849c0-5.134,3.375-8.843,8.223-8.843,5.088,0,8.129,3.375,8.129,8.843Z" transform="translate(155.496 -15.75)" fill="#e2f7ff"/>
  <text id="آکادمی_نیمکت" data-name="آکادمی نیمکت" transform="translate(0 39.107)" fill="#e2f7ff" font-size="30" font-family="IRANSansMobile-Black, IRANSansMobile" font-weight="800"><tspan x="0" y="0">آکادمی نیمکت</tspan></text>
</svg>
